<?xml version="1.0" encoding="UTF-8" standalone="no"?>
<!-- Created with Inkscape (http://www.inkscape.org/) -->

<svg
   width="123.22972mm"
   height="136.99628mm"
   viewBox="0 0 123.22972 136.99628"
   version="1.1"
   id="svg1"
   xml:space="preserve"
   xmlns="http://www.w3.org/2000/svg"
   xmlns:svg="http://www.w3.org/2000/svg"><defs
     id="defs1" /><g
     id="layer1"
     transform="translate(-184.49815,-174.58027)"><path
       style="fill:#af8def;stroke:#000000;stroke-width:4.7;stroke-dasharray:none;stroke-opacity:1"
       d="m 295.31923,177.04502 c 7.36886,1.15989 11.41825,8.28317 9.33412,15.22966 -3.5886,11.96099 -8.49741,23.7235 -12.78779,35.45417 -1.22396,3.34654 -2.37724,6.722 -3.63924,10.05417 -0.59315,1.56616 -1.73061,3.60148 -1.73061,5.29167 0,1.69017 1.13746,3.72551 1.73061,5.29166 1.22858,3.24395 2.3259,6.53972 3.54105,9.78958 2.95495,7.90291 5.69486,15.88839 8.59303,23.8125 1.71193,4.68072 4.12714,9.61184 4.89684,14.55209 1.06833,6.85705 -5.5566,13.32888 -12.31926,12.65488 -3.79511,-0.37824 -7.09837,-2.75967 -10.31875,-4.60592 l -15.87499,-9.1073 c -19.0286,-10.93607 -38.10998,-21.78116 -57.14999,-32.69686 -3.87723,-2.22282 -7.75649,-4.44284 -11.64167,-6.65173 -5.41869,-3.08078 -10.69181,-5.82403 -11.0878,-12.77432 -0.58267,-10.22715 14.17042,-15.05464 21.40655,-19.20312 20.62437,-11.82396 41.35109,-23.48 61.91249,-35.41334 4.83788,-2.80779 9.7021,-5.56701 14.55208,-8.35438 3.25215,-1.86907 6.66733,-3.93981 10.58333,-3.32341 z"
       id="path1" /></g></svg>
